<svg xmlns="http://www.w3.org/2000/svg" width="243.849" height="55"><defs><clipPath id="a"><path data-name="Rectangle 14514" fill="none" d="M0 0h243.849v55H0z"/></clipPath></defs><g data-name="Group 16787" clip-path="url(#a)"><path data-name="Path 11327" d="M42.3 17.121l-.216-.612-.612-.217a21.71 21.71 0 00-2.849-.792 16.891 16.891 0 00-33.666 0 21.689 21.689 0 00-2.84.79l-.611.215-.217.612A21.527 21.527 0 0013.9 44.67l.007.02.613.216a21.815 21.815 0 0014.553 0l.612-.216.007-.021A21.539 21.539 0 0042.3 17.121M27.552 42.532c-.151.048-.3.1-.455.14a17.631 17.631 0 01-2.214.499c-.269.045-.539.079-.809.112a17.617 17.617 0 01-1.517.12 17.641 17.641 0 01-1.516 0 17.08 17.08 0 01-1.517-.12 16.802 16.802 0 01-1.515-.242 17.49 17.49 0 01-1.508-.369c-.153-.043-.3-.092-.455-.14a19.168 19.168 0 01-.465-9.929 16.83 16.83 0 0012.439 0 19.185 19.185 0 01-.464 9.933m-5.765-11.463a14.1 14.1 0 01-5.437-1.087 18.941 18.941 0 014.333-6.686 11.262 11.262 0 011.11-.943 11.255 11.255 0 011.106.939 18.927 18.927 0 014.335 6.689 14.109 14.109 0 01-5.448 1.09m-7.851-2.38A14.177 14.177 0 017.652 17.85c.569-.051 1.14-.085 1.715-.085A18.842 18.842 0 0119.509 20.7c-.252.21-.5.43-.745.674a21.7 21.7 0 00-4.824 7.317m10.886-7.323a11.22 11.22 0 00-.737-.666 18.852 18.852 0 0110.141-2.935c.572 0 1.139.034 1.7.084a14.175 14.175 0 01-6.282 10.835 21.7 21.7 0 00-4.826-7.318M21.791 2.719a14.2 14.2 0 0114.061 12.394 21.391 21.391 0 00-1.623-.065A21.565 21.565 0 0021.8 18.959a21.554 21.554 0 00-12.434-3.913c-.547 0-1.091.024-1.634.065A14.194 14.194 0 0121.791 2.719M3.644 18.645c.435-.137.873-.255 1.314-.36a16.91 16.91 0 008.117 13.078 21.714 21.714 0 00-.177 9.885 18.3 18.3 0 01-4.615-3.34 18.913 18.913 0 01-4.639-19.263m27.05 22.6a21.735 21.735 0 00-.179-9.888 16.909 16.909 0 008.11-13.073c.444.106.885.225 1.322.363A18.925 18.925 0 0135.3 37.909a18.427 18.427 0 01-4.609 3.338" fill="#00b14e"/><path data-name="Path 11328" d="M61.779 9.451h5.862l10.238 27.254h-5.672l-2.245-6.509H59.457l-2.246 6.509h-5.672zm6.51 16.025l-2.436-6.814-.99-3.311h-.305l-.99 3.311-2.435 6.814z" fill="#151514"/><path data-name="Path 11329" d="M87.104 45.536a11.1 11.1 0 01-3.52-.514 9.926 9.926 0 01-2.683-1.333 8.945 8.945 0 01-1.9-1.806 7.056 7.056 0 01-1.1-1.98l4.757-1.9a4.527 4.527 0 001.751 2.3 5.119 5.119 0 006.434-.712 6.1 6.1 0 001.37-4.216v-1.297h-.3a6.11 6.11 0 01-2.3 1.922 7.521 7.521 0 01-3.368.7 8.182 8.182 0 01-3.255-.677 8.539 8.539 0 01-2.8-1.941 10.249 10.249 0 010-14.023 8.521 8.521 0 012.8-1.94 8.167 8.167 0 013.255-.68 7.528 7.528 0 013.368.706 6.122 6.122 0 012.3 1.921h.3v-2.014h4.747v17.321a11.8 11.8 0 01-.723 4.244 9.2 9.2 0 01-2.018 3.2 8.761 8.761 0 01-3.1 2.016 10.959 10.959 0 01-4.016.705m.19-13.324a5.1 5.1 0 001.809-.335 4.634 4.634 0 001.579-.991 4.93 4.93 0 001.1-1.606 5.427 5.427 0 00.418-2.188 5.555 5.555 0 00-.418-2.2 4.89 4.89 0 00-1.1-1.625 4.635 4.635 0 00-1.579-.992 5.123 5.123 0 00-1.809-.336 4.952 4.952 0 00-1.788.336 4.529 4.529 0 00-1.56 1.01 5.13 5.13 0 00-1.105 1.626 5.923 5.923 0 000 4.373 4.906 4.906 0 001.105 1.606 4.64 4.64 0 001.56.991 4.928 4.928 0 001.788.335" fill="#151514"/><path data-name="Path 11330" d="M98.941 18.052h4.682v2.589h.305a4.782 4.782 0 01.913-1.258 6.725 6.725 0 011.274-.994 7.248 7.248 0 011.526-.685 5.337 5.337 0 011.618-.262 5.945 5.945 0 011.693.213 4.283 4.283 0 011.2.55l-1.333 4.453a4.747 4.747 0 00-1.008-.36 5.828 5.828 0 00-1.352-.135 4.271 4.271 0 00-1.865.4 4.1 4.1 0 00-1.427 1.13 5.3 5.3 0 00-.912 1.7 6.687 6.687 0 00-.323 2.123v9.188h-4.991z" fill="#151514"/><path data-name="Rectangle 14513" fill="#151514" d="M113.979 18.053h4.987v18.652h-4.987z"/><path data-name="Path 11331" d="M122.349 9.451h17.283v4.872H127.49v6.624h10.923v4.872H127.49v10.886h-5.141z" fill="#151514"/><path data-name="Path 11332" d="M153.603 34.269h-.305a6.311 6.311 0 01-2.361 2.227 6.91 6.91 0 01-3.388.818 6.334 6.334 0 01-5.271-2.17 9 9 0 01-1.733-5.786V18.053h4.988v10.7a4.294 4.294 0 00.894 2.989 3.372 3.372 0 002.607.97 3.639 3.639 0 001.808-.437 4.239 4.239 0 001.332-1.18 5.349 5.349 0 00.838-1.751 7.838 7.838 0 00.285-2.152v-9.139h4.986v18.652h-4.681z" fill="#151514"/><path data-name="Path 11333" d="M163.081 22.317h-3.274v-4.264h3.274v-5.709h4.983v5.709h4.568v4.264h-4.568v7.452a5.475 5.475 0 00.131 1.237 2.015 2.015 0 00.515.96 1.879 1.879 0 001.522.629 3.168 3.168 0 001.027-.135 3.21 3.21 0 00.723-.361l1.408 4.378a8.2 8.2 0 01-1.886.627 11 11 0 01-2.226.21 6.817 6.817 0 01-2.531-.446 5.409 5.409 0 01-1.886-1.223 6.645 6.645 0 01-1.788-4.975z" fill="#151514"/><path data-name="Path 11334" d="M188.253 34.269h-.3a6.319 6.319 0 01-2.361 2.227 6.909 6.909 0 01-3.388.818 6.338 6.338 0 01-5.272-2.17 9.01 9.01 0 01-1.732-5.786V18.053h4.987v10.7a4.293 4.293 0 00.9 2.989 3.368 3.368 0 002.607.97 3.629 3.629 0 001.807-.437 4.23 4.23 0 001.333-1.18 5.323 5.323 0 00.837-1.751 7.836 7.836 0 00.287-2.152v-9.139h4.987v18.652h-4.683z" fill="#151514"/><path data-name="Path 11335" d="M194.913 18.052h4.682v2.589h.306a4.817 4.817 0 01.913-1.258 6.775 6.775 0 011.277-.994 7.226 7.226 0 011.522-.685 5.332 5.332 0 011.619-.262 5.944 5.944 0 011.693.213 4.269 4.269 0 011.2.55l-1.337 4.453a4.745 4.745 0 00-1.008-.36 5.828 5.828 0 00-1.351-.135 4.272 4.272 0 00-1.866.4 4.093 4.093 0 00-1.427 1.13 5.3 5.3 0 00-.913 1.7 6.717 6.717 0 00-.323 2.123v9.188h-4.987z" fill="#151514"/><path data-name="Path 11336" d="M225.771 32.212a10.475 10.475 0 01-3.484 3.694 9.7 9.7 0 01-5.348 1.408 10.268 10.268 0 01-3.94-.742 9.41 9.41 0 01-5.214-5.216 10.379 10.379 0 01-.744-3.978 10.2 10.2 0 01.723-3.825 9.654 9.654 0 015.082-5.31 9.359 9.359 0 013.9-.8 10.182 10.182 0 014 .742 8.177 8.177 0 012.93 2.056 8.86 8.86 0 011.79 3.1 11.983 11.983 0 01.609 3.881v.458a2.552 2.552 0 00-.038.419 2.049 2.049 0 00-.038.418h-14.048a5.209 5.209 0 00.628 1.96 4.731 4.731 0 001.18 1.37 4.579 4.579 0 001.542.8 5.966 5.966 0 001.712.247 4.855 4.855 0 002.836-.78 5.678 5.678 0 001.769-1.959zm-4.53-7.231a3.213 3.213 0 00-.325-1.1 3.9 3.9 0 00-.836-1.142 4.406 4.406 0 00-1.37-.875 5.056 5.056 0 00-1.96-.344 4.568 4.568 0 00-2.817.914 4.816 4.816 0 00-1.713 2.551z" fill="#151514"/><path data-name="Path 11337" d="M235.895 37.314a10.666 10.666 0 01-3.254-.457 8.98 8.98 0 01-2.475-1.2 7.855 7.855 0 01-1.769-1.714 8.162 8.162 0 01-1.105-1.961l4.454-1.9a4.817 4.817 0 001.733 2.151 4.328 4.328 0 002.416.705 4.1 4.1 0 002.17-.5 1.406 1.406 0 00.8-1.179 1.461 1.461 0 00-.666-1.237 6.93 6.93 0 00-2.3-.856l-2.627-.571a9.107 9.107 0 01-1.808-.609 7.066 7.066 0 01-1.695-1.066 5.416 5.416 0 01-1.259-1.558 4.414 4.414 0 01-.5-2.132 4.93 4.93 0 01.59-2.436 5.483 5.483 0 011.617-1.808 7.749 7.749 0 012.418-1.143 10.821 10.821 0 012.987-.4 10.5 10.5 0 014.759 1.047 6.457 6.457 0 013.084 3.331l-4.3 1.751a3.307 3.307 0 00-1.561-1.6 4.713 4.713 0 00-2.054-.494 3.836 3.836 0 00-1.865.437 1.285 1.285 0 00-.8 1.124 1.148 1.148 0 00.666 1.026 7.678 7.678 0 001.808.685l2.854.685a8.258 8.258 0 014.245 2.189 5.07 5.07 0 011.389 3.56 4.991 4.991 0 01-.57 2.321 6.215 6.215 0 01-1.619 1.96 7.932 7.932 0 01-2.512 1.353 10.173 10.173 0 01-3.254.494" fill="#151514"/><path data-name="Path 11338" d="M119.709 12.344a3.237 3.237 0 11-3.239-3.239 3.238 3.238 0 013.239 3.239" fill="#151514"/><path data-name="Path 11339" d="M121.745 54.809l-1.055-2.74h-5.025l-1.026 2.74h-.791l3.936-10.387h.747l3.985 10.387zm-3.59-9.332l-2.212 5.875h4.468z" fill="#151514"/><path data-name="Path 11340" d="M128.353 54.794l-.087-1.332a2.726 2.726 0 01-2.477 1.523 2.4 2.4 0 01-2.579-2.681v-4.835h.733v4.79c0 1.275.556 2.008 1.89 2.008 1.8 0 2.433-1.554 2.433-3.135v-3.663h.732v7.325z" fill="#151514"/><path data-name="Path 11341" d="M135.756 54.121a3.163 3.163 0 01-2.375.88 3.1 3.1 0 01-2.4-.938 2.209 2.209 0 01-.616-1.48h.748a1.816 1.816 0 00.542 1.128 2.934 2.934 0 003.458.044 1.183 1.183 0 00.394-.938 1.371 1.371 0 00-1.346-1.332l-1.423-.191a2.564 2.564 0 01-1.655-.734 1.708 1.708 0 01-.41-1.156 1.9 1.9 0 01.631-1.422 2.917 2.917 0 012.007-.688 2.866 2.866 0 012.211.864 2.237 2.237 0 01.558 1.348h-.733a1.761 1.761 0 00-.367-.88 2.121 2.121 0 00-1.669-.645 2.168 2.168 0 00-1.318.338 1.24 1.24 0 00-.573 1.011c0 .615.308 1.084 1.421 1.229l1.393.191a2.109 2.109 0 012.022 2.023 1.959 1.959 0 01-.5 1.347" fill="#151514"/><path data-name="Path 11342" d="M140.416 54.912c-1.363 0-1.891-.865-1.891-2.139v-4.615h-1.464v-.674h1.466v-2.022l.733-.176v2.2h2.267v.674h-2.271v4.587c0 .864.233 1.48 1.215 1.48a6.223 6.223 0 001.159-.131v.645a5.8 5.8 0 01-1.216.176" fill="#151514"/><path data-name="Path 11343" d="M146.058 48.114c-1.831 0-2.331 1.64-2.331 3.179v3.516h-.733v-7.325h.645l.088 1.478a2.355 2.355 0 012.331-1.552 3.977 3.977 0 01.717.043v.733a2.98 2.98 0 00-.717-.073" fill="#151514"/><path data-name="Path 11344" d="M153.561 54.856c-.91 0-1.158-.658-1.158-1.436a2.721 2.721 0 01-2.637 1.583 2.284 2.284 0 01-2.52-2.257c0-1.3 1.011-2.081 2.46-2.184l2.7-.189v-.717c0-1.215-.821-1.67-1.934-1.67-1.157 0-2.036.528-2.11 1.611h-.733c.1-1.478 1.26-2.3 2.843-2.3a2.472 2.472 0 012.474 1.344 3.8 3.8 0 01.191 1.407v3.341c0 .5.073.791.571.791a.894.894 0 00.2-.015v.644a1.471 1.471 0 01-.351.044m-1.158-3.809l-2.624.161c-1.083.073-1.787.644-1.787 1.538 0 1.055.792 1.583 1.832 1.583a2.6 2.6 0 002.579-2.9z" fill="#151514"/><path data-name="Path 11345" d="M156.902 54.897c-.937 0-1.464-.484-1.464-1.553v-9.109h.731v9.083c0 .5.148.88.763.88a3.877 3.877 0 00.631-.03v.645a2.323 2.323 0 01-.661.088" fill="#151514"/><path data-name="Path 11346" d="M159.218 44.422h1.026v1.026h-1.026zm.133 3.062h.776v7.325h-.776z" fill="#151514"/><path data-name="Path 11347" d="M168.509 54.856c-.909 0-1.158-.658-1.158-1.436a2.722 2.722 0 01-2.637 1.583 2.284 2.284 0 01-2.52-2.257c0-1.3 1.01-2.081 2.461-2.184l2.7-.189v-.717c0-1.215-.821-1.67-1.934-1.67-1.158 0-2.037.528-2.11 1.611h-.733c.1-1.478 1.26-2.3 2.843-2.3a2.474 2.474 0 012.475 1.347 3.8 3.8 0 01.191 1.407v3.341c0 .5.073.791.571.791a.891.891 0 00.2-.015v.644a1.457 1.457 0 01-.351.044m-1.154-3.812l-2.623.161c-1.084.073-1.788.644-1.788 1.538 0 1.055.792 1.583 1.832 1.583a2.6 2.6 0 002.579-2.9z" fill="#151514"/></g></svg>